<?xml version="1.0" encoding="UTF-8"?>
<svg width="28px" height="28px" viewBox="0 0 28 28" version="1.1" xmlns="http://www.w3.org/2000/svg" xmlns:xlink="http://www.w3.org/1999/xlink">
    <title>about_enable</title>
    <g id="Page-1" stroke="none" stroke-width="1" fill="none" fill-rule="evenodd">
        <g id="Home-Copy-2" transform="translate(-212.000000, -716.000000)" fill-rule="nonzero">
            <g id="about_enable" transform="translate(212.000000, 716.000000)">
                <path d="M28,14 C28,21.7319865 21.7319865,28 14,28 C6.2680135,28 0,21.7319865 0,14 C0,6.2680135 6.2680135,0 14,0 C21.7283781,0.00870460507 27.9912954,6.27162194 28,14 Z" id="Shape" fill="#505050"></path>
                <path d="M26.1333333,14 C26.1333333,7.29894504 20.701055,1.86666667 14,1.86666667 C7.29894504,1.86666667 1.86666667,7.29894504 1.86666667,14 C1.86666667,20.701055 7.29894504,26.1333333 14,26.1333333 C20.6979348,26.1258066 26.1258066,20.6979348 26.1333333,14 Z" id="Path" fill="#FF8F2E"></path>
                <path d="M16.2879889,20.7517022 C15.8404618,20.6083018 15.2934724,20.1874742 15.2934724,18.987556 L15.2934724,11.1095382 C15.2935253,11.0530323 15.271128,10.9988199 15.2312081,10.9588283 C15.1912882,10.9188366 15.1371162,10.8962933 15.0806102,10.8962933 L11.9402173,10.8962933 C11.7279355,10.8962933 11.5243659,10.9807088 11.3742941,11.1308488 C11.2242223,11.2809888 11.1399424,11.4845969 11.139996,11.6968787 C11.1429494,12.0499461 11.3745933,12.3602936 11.7122382,12.4635467 C12.1596907,12.6069502 12.7067173,13.0277778 12.7067173,14.2276929 L12.7067173,18.987556 C12.7067173,20.1874742 12.1596907,20.6082831 11.7120111,20.7517022 C11.3743755,20.8549515 11.1427434,21.1652972 11.1398062,21.5183547 C11.1398062,21.7306418 11.2241263,21.9342364 11.3742328,22.0843493 C11.5243392,22.2344622 11.7279302,22.3188 11.9402173,22.3188 L16.0597827,22.3188 C16.501842,22.3188 16.8601938,21.9604295 16.8601938,21.5183702 C16.8572584,21.1653087 16.6256269,20.8549575 16.2879889,20.7517022 Z" id="Path" fill="#505050"></path>
                <path d="M12.2338596,7.26259644 C12.2338596,6.62299485 12.6191584,6.04637639 13.2100757,5.80161756 C13.8009931,5.55685873 14.4811641,5.69216063 14.9334258,6.14443215 C15.3856876,6.59670367 15.5209747,7.27687759 15.2762031,7.86778965 C15.0314315,8.45870171 14.4548047,8.84397422 13.8152031,8.84397422 C12.9418456,8.84397422 12.2338596,8.13595391 12.2338596,7.26259644 Z" id="Path" fill="#505050"></path>
            </g>
        </g>
    </g>
</svg>