<?xml version="1.0" encoding="UTF-8"?>
<svg width="27px" height="21px" viewBox="0 0 27 21" version="1.1" xmlns="http://www.w3.org/2000/svg" xmlns:xlink="http://www.w3.org/1999/xlink">
    <title>buy_sell</title>
    <g id="Page-1" stroke="none" stroke-width="1" fill="none" fill-rule="evenodd">
        <g id="intro-copy" transform="translate(-76.000000, -119.000000)" fill="#FFFFFF" fill-rule="nonzero">
            <g id="Group" transform="translate(76.000000, 119.000000)">
                <path d="M0.45,21 L4.5,21 C4.77,21 4.95,20.825 4.95,20.5625 L4.95,18.8125 L9,18.8125 C9.135,18.8125 9.27,18.725 9.36,18.6375 L12.51,14.2625 C12.645,14.0875 12.6,13.825 12.42,13.65 L10.62,12.3375 C10.44,12.20625 10.125,12.25 9.99,12.425 C9.99,12.425 9.99,12.425 9.99,12.425 L7.875,15.3125 L4.95,15.3125 L5.67,14.7875 C5.85,14.65625 5.895,14.35 5.76,14.175 L5.76,14.175 L4.41,12.425 C4.32,12.3375 4.23,12.25 4.095,12.25 C3.96,12.25 3.825,12.29375 3.735,12.3375 L0.135,15.4 C0.045,15.4875 0,15.61875 0,15.75 L0,20.5625 C0,20.825 0.18,21 0.45,21 Z M0.9,15.96875 L3.96,13.34375 L4.77,14.35 L3.33,15.4 C3.15,15.53125 3.105,15.8375 3.24,16.0125 C3.33,16.14375 3.465,16.1875 3.6,16.1875 L8.1,16.1875 C8.235,16.1875 8.37,16.1 8.46,16.0125 L10.44,13.3 L11.52,14.0875 L8.775,17.9375 L4.5,17.9375 C4.23,17.9375 4.05,18.1125 4.05,18.375 L4.05,20.125 L0.9,20.125 L0.9,15.96875 Z" id="Shape"></path>
                <path d="M26.865,15.4 L23.265,12.3375 C23.085,12.1625 22.815,12.20625 22.635,12.38125 C22.635,12.38125 22.635,12.38125 22.635,12.425 L21.285,14.175 C21.15,14.35 21.195,14.65625 21.375,14.7875 L21.375,14.7875 L22.05,15.3125 L19.125,15.3125 L17.01,12.425 C16.875,12.25 16.605,12.1625 16.38,12.3375 C16.38,12.3375 16.38,12.3375 16.38,12.3375 L14.58,13.65 C14.4,13.78125 14.355,14.04375 14.49,14.2625 L17.64,18.6375 C17.73,18.76875 17.865,18.8125 18,18.8125 L22.05,18.8125 L22.05,20.5625 C22.05,20.825 22.23,21 22.5,21 L26.55,21 C26.82,21 27,20.825 27,20.5625 L27,15.75 C27,15.61875 26.955,15.4875 26.865,15.4 Z M26.1,20.125 L22.95,20.125 L22.95,18.375 C22.95,18.1125 22.77,17.9375 22.5,17.9375 L18.225,17.9375 L15.48,14.0875 L16.56,13.3 L18.54,16.0125 C18.63,16.14375 18.765,16.1875 18.9,16.1875 L23.4,16.1875 C23.67,16.1875 23.85,16.0125 23.85,15.75 C23.85,15.61875 23.805,15.4875 23.67,15.4 L22.23,14.35 L23.04,13.34375 L26.1,15.96875 L26.1,20.125 L26.1,20.125 Z" id="Shape"></path>
                <path d="M1.35,11.375 L12.15,11.375 C12.42,11.375 12.6,11.2 12.6,10.9375 L12.6,3.0625 C12.6,2.8 12.42,2.625 12.15,2.625 L9.81,2.625 C9.495,1.575 8.595,0 6.75,0 C4.905,0 4.005,1.575 3.69,2.625 L1.35,2.625 C1.08,2.625 0.9,2.8 0.9,3.0625 L0.9,10.9375 C0.9,11.2 1.08,11.375 1.35,11.375 Z M1.8,10.5 L1.8,9.625 L11.7,9.625 L11.7,10.5 L1.8,10.5 Z M1.8,5.25 L11.7,5.25 L11.7,8.75 L1.8,8.75 L1.8,5.25 Z M6.75,0.875 C8.055,0.875 8.64,1.96875 8.865,2.625 L4.635,2.625 C4.86,1.96875 5.445,0.875 6.75,0.875 Z M11.7,3.5 L11.7,4.375 L1.8,4.375 L1.8,3.5 L11.7,3.5 Z" id="Shape"></path>
                <path d="M20.25,2.1875 C17.505,2.1875 15.3,4.33125 15.3,7 C15.3,9.66875 17.505,11.8125 20.25,11.8125 C22.995,11.8125 25.2,9.66875 25.2,7 C25.2,4.33125 22.995,2.1875 20.25,2.1875 Z M20.25,10.9375 C18,10.9375 16.2,9.1875 16.2,7 C16.2,4.8125 18,3.0625 20.25,3.0625 C22.5,3.0625 24.3,4.8125 24.3,7 C24.3,9.1875 22.5,10.9375 20.25,10.9375 Z" id="Shape"></path>
                <polygon id="Path" points="20.7 3.9375 19.8 3.9375 19.8 4.8125 18.9 4.8125 18.9 7.4375 20.7 7.4375 20.7 8.3125 18.9 8.3125 18.9 9.1875 19.8 9.1875 19.8 10.0625 20.7 10.0625 20.7 9.1875 21.6 9.1875 21.6 6.5625 19.8 6.5625 19.8 5.6875 21.6 5.6875 21.6 4.8125 20.7 4.8125"></polygon>
            </g>
        </g>
    </g>
</svg>