<?xml version="1.0" encoding="UTF-8"?>
<svg width="26px" height="26px" viewBox="0 0 26 26" version="1.1" xmlns="http://www.w3.org/2000/svg" xmlns:xlink="http://www.w3.org/1999/xlink">
    <title>call</title>
    <g id="Page-1" stroke="none" stroke-width="1" fill="none" fill-rule="evenodd">
        <g id="intro-copy" transform="translate(-169.000000, -45.000000)" fill="#E87512" fill-rule="nonzero">
            <g id="call" transform="translate(170.000000, 46.000000)">
                <path d="M6.3333125,-0.75 L1.9258125,-0.75 C0.449723938,-0.75 -0.75,0.449723938 -0.75,1.9258125 C-0.75,14.5118898 9.4881502,24.75 22.07425,24.75 C23.5503386,24.75 24.7500625,23.5502761 24.7500625,22.0741875 L24.7500625,17.679 C24.7500625,16.2029783 23.5502804,15.00325 22.07425,15.00325 C20.8388662,15.00325 19.6244336,14.8316736 18.4631841,14.4939337 L17.8570088,14.3078106 C17.0378926,14.0970812 16.0825935,14.310618 15.4789855,14.8328849 L15.41,14.897 L13.129,16.619 L12.8757392,16.4745086 C10.4873718,15.0870281 8.89129512,13.4913502 7.52024982,11.1207519 L7.378,10.87 L9.041,8.66 L8.99609984,8.70849759 C9.70908252,7.99646915 9.96271445,6.95543506 9.65887533,5.98765757 C9.22666712,4.67827355 9.0090625,3.3155536 9.0090625,1.925875 C9.00914938,0.449767837 7.8094353,-0.75 6.3333125,-0.75 Z M1.9258125,0.75 L6.3333125,0.75 C6.98097841,0.75 7.50910062,1.27814587 7.5090625,1.92583086 C7.5090625,3.47478336 7.75202087,4.99627779 8.23112283,6.44744197 C8.3496507,6.82521229 8.27455666,7.22946621 8.03404212,7.53670265 L7.86678239,7.72693731 L5.60291278,10.7362702 L5.82639352,11.1575386 C7.54416337,14.3955908 9.57968107,16.4306517 12.8408181,18.1714488 L13.2634822,18.3970672 L16.3444347,16.0712788 L16.4299233,15.9958924 C16.6493854,15.7704926 17.1752408,15.652686 17.5528255,15.7814713 C19.0031228,16.2607849 20.5253342,16.50325 22.07425,16.50325 C22.7218684,16.50325 23.2500625,17.0314205 23.2500625,17.679 L23.2500625,22.0741875 C23.2500625,22.7218489 22.7219114,23.25 22.07425,23.25 C10.316576,23.25 0.75,13.6834614 0.75,1.9258125 C0.75,1.27815106 1.27815106,0.75 1.9258125,0.75 Z" id="Path"></path>
            </g>
        </g>
    </g>
</svg>