<?xml version="1.0" encoding="UTF-8"?>
<svg width="50px" height="44px" viewBox="0 0 50 44" version="1.1" xmlns="http://www.w3.org/2000/svg" xmlns:xlink="http://www.w3.org/1999/xlink">
    <title>noun_chat_2640527</title>
    <g id="Page-1" stroke="none" stroke-width="1" fill="none" fill-rule="evenodd">
        <g id="intro-copy" transform="translate(-156.000000, -232.000000)" fill="#FFFFFF" fill-rule="nonzero">
            <g id="Group" transform="translate(156.000000, 232.000000)">
                <path d="M10.3867188,7.6044922 L25.303711,7.6044922 C25.8564454,7.6044922 26.303711,7.1567383 26.303711,6.6044922 C26.303711,6.0522461 25.8564454,5.6044922 25.303711,5.6044922 L10.3867188,5.6044922 C9.8339844,5.6044922 9.3867188,6.0522461 9.3867188,6.6044922 C9.3867188,7.1567383 9.8339844,7.6044922 10.3867188,7.6044922 Z" id="Path"></path>
                <path d="M7.0888672,12.6044922 L25.303711,12.6044922 C25.8564454,12.6044922 26.303711,12.1567383 26.303711,11.6044922 C26.303711,11.0522461 25.8564454,10.6044922 25.303711,10.6044922 L7.0888672,10.6044922 C6.5361328,10.6044922 6.0888672,11.0522461 6.0888672,11.6044922 C6.0888672,12.1567383 6.5361328,12.6044922 7.0888672,12.6044922 Z" id="Path"></path>
                <path d="M14.8037109,15.6044922 L7.0888671,15.6044922 C6.5361327,15.6044922 6.0888671,16.0522461 6.0888671,16.6044922 C6.0888671,17.1567383 6.5361327,17.6044922 7.0888671,17.6044922 L14.8037109,17.6044922 C15.3564453,17.6044922 15.8037109,17.1567383 15.8037109,16.6044922 C15.8037109,16.0522461 15.3564453,15.6044922 14.8037109,15.6044922 Z" id="Path"></path>
                <path d="M48.8037109,14.5966797 L32.1962891,14.5966797 L32.1962891,1.6044922 C32.1962891,1.0522461 31.7490235,0.6044922 31.1962891,0.6044922 L1.1962891,0.6044922 C0.6435547,0.6044922 0.1962891,1.0522461 0.1962891,1.6044922 L0.1962891,21.6044922 C0.1962891,22.1567383 0.6435547,22.6044922 1.1962891,22.6044922 L6.5605469,22.6044922 L10.116211,28.8955078 C10.2929688,29.2094726 10.6259766,29.4033203 10.9863282,29.4033203 C11.3466798,29.4033203 11.6796876,29.2094726 11.8564454,28.8955078 L15.4121095,22.6044922 L17.8037111,22.6044922 L17.8037111,35.5966797 C17.8037111,36.1489258 18.2509767,36.5966797 18.8037111,36.5966797 L34.5878908,36.5966797 L38.1435549,42.8876953 C38.3203127,43.2016601 38.6533205,43.3955078 39.0136721,43.3955078 C39.3740237,43.3955078 39.7070315,43.2016601 39.8837893,42.8876953 L43.4394534,36.5966797 L48.8037112,36.5966797 C49.3564456,36.5966797 49.8037112,36.1489258 49.8037112,35.5966797 L49.8037112,15.5966797 C49.8037112,15.0444336 49.3564453,14.5966797 48.8037109,14.5966797 Z M14.8291016,20.6044922 C14.46875,20.6044922 14.1357422,20.7983399 13.9589844,21.1123047 L10.9863281,26.3710938 L8.0136718,21.1123047 C7.836914,20.7983399 7.5039062,20.6044922 7.1435546,20.6044922 L2.1962891,20.6044922 L2.1962891,2.6044922 L30.1962891,2.6044922 L30.1962891,14.5966797 L18.8037109,14.5966797 C18.2509765,14.5966797 17.8037109,15.0444336 17.8037109,15.5966797 L17.8037109,20.6044922 L14.8291016,20.6044922 Z M47.8037109,34.5966797 L42.8564453,34.5966797 C42.4960937,34.5966797 42.1630859,34.7905274 41.9863281,35.1044922 L39.0136718,40.3632813 L36.0410155,35.1044922 C35.8642577,34.7905274 35.5312499,34.5966797 35.1708983,34.5966797 L19.8037109,34.5966797 L19.8037109,16.5966797 L47.8037109,16.5966797 L47.8037109,34.5966797 Z" id="Shape"></path>
                <path d="M26.9951172,20.5966797 C26.9951172,21.1489258 27.4423828,21.5966797 27.9951172,21.5966797 L42.9111328,21.5966797 C43.4638672,21.5966797 43.9111328,21.1489258 43.9111328,20.5966797 C43.9111328,20.0444336 43.4638672,19.5966797 42.9111328,19.5966797 L27.9951172,19.5966797 C27.4423828,19.5966797 26.9951172,20.0444336 26.9951172,20.5966797 Z" id="Path"></path>
                <path d="M42.9111328,24.5966797 L24.6962891,24.5966797 C24.1435547,24.5966797 23.6962891,25.0444336 23.6962891,25.5966797 C23.6962891,26.1489258 24.1435547,26.5966797 24.6962891,26.5966797 L42.9111329,26.5966797 C43.4638673,26.5966797 43.9111329,26.1489258 43.9111329,25.5966797 C43.9111329,25.0444336 43.4638672,24.5966797 42.9111328,24.5966797 Z" id="Path"></path>
                <path d="M42.9111328,29.5966797 L24.6962891,29.5966797 C24.1435547,29.5966797 23.6962891,30.0444336 23.6962891,30.5966797 C23.6962891,31.1489258 24.1435547,31.5966797 24.6962891,31.5966797 L42.9111329,31.5966797 C43.4638673,31.5966797 43.9111329,31.1489258 43.9111329,30.5966797 C43.9111329,30.0444336 43.4638672,29.5966797 42.9111328,29.5966797 Z" id="Path"></path>
            </g>
        </g>
    </g>
</svg>