<?xml version="1.0" encoding="UTF-8"?>
<svg width="28px" height="27px" viewBox="0 0 28 27" version="1.1" xmlns="http://www.w3.org/2000/svg" xmlns:xlink="http://www.w3.org/1999/xlink">
    <title>featured_enable</title>
    <g id="Page-1" stroke="none" stroke-width="1" fill="none" fill-rule="evenodd">
        <g id="Home-Copy-2" transform="translate(-116.000000, -717.000000)" fill-rule="nonzero">
            <g id="featured_enable" transform="translate(116.000000, 717.000000)">
                <path d="M13.1,0.6 C13.4249,-0.15905 14.4487862,-0.19564875 14.8431562,0.486345562 L14.9,0.6 L18.45,8.3 L26.95,9.25 C27.7231818,9.34688636 28.1492128,10.2706477 27.630581,10.9106251 L27.55,11 L21.25,16.7 L22.95,25 C23.0595217,25.878087 22.1978412,26.4450964 21.5385401,26.1024229 L21.45,26.05 L14,21.9 L6.55,26.05 C5.9131875,26.4740625 4.9117691,25.9494149 5.02833388,25.1110754 L5.05,25 L6.8,16.7 L0.5,11 C-0.105181818,10.4955227 0.133367769,9.46120764 0.932113261,9.27124521 L1.05,9.25 L9.55,8.3 L13.1,0.6 Z" id="Shape" fill="#505050"></path>
                <polygon id="Path" fill="#FF8F2E" points="17.1062555 10.1622694 14 3.424 10.8937445 10.1622694 3.471 10.991 8.99408749 15.9880216 7.461 23.252 14 19.6106321 20.551 23.259 19.0615993 15.9828764 24.572 10.996"></polygon>
            </g>
        </g>
    </g>
</svg>