<?xml version="1.0" encoding="UTF-8"?>
<svg width="28px" height="28px" viewBox="0 0 28 28" version="1.1" xmlns="http://www.w3.org/2000/svg" xmlns:xlink="http://www.w3.org/1999/xlink">
    <title>noun_Gear_2431270</title>
    <g id="Page-1" stroke="none" stroke-width="1" fill="none" fill-rule="evenodd">
        <g id="intro-copy" transform="translate(-180.000000, -115.000000)" fill="#FFFFFF" fill-rule="nonzero">
            <g id="Group" transform="translate(180.000000, 115.000000)">
                <path d="M19,15.5 C17.0670034,15.5 15.5,17.0670034 15.5,19 C15.5,20.9329966 17.0670034,22.5 19,22.5 C20.9329966,22.5 22.5,20.9329966 22.5,19 C22.5,17.0670034 20.9329966,15.5 19,15.5 Z M19,21.5 C17.6192881,21.5 16.5,20.3807119 16.5,19 C16.5,17.6192881 17.6192881,16.5 19,16.5 C20.3807119,16.5 21.5,17.6192881 21.5,19 C21.5,20.3807119 20.3807119,21.5 19,21.5 Z" id="Shape"></path>
                <path d="M27.5,17 L25.705,17 C25.5677292,16.5405913 25.3834198,16.0965733 25.155,15.675 L26.425,14.405 C26.6188618,14.2099813 26.6188618,13.8950187 26.425,13.7 L24.305,11.58 C24.1099813,11.3861382 23.7950187,11.3861382 23.6,11.58 L22.33,12.85 C21.9071285,12.6193455 21.4613925,12.4333429 21,12.295 L21,10.5 C21,10.2238576 20.7761424,10 20.5,10 L17.5,10 C17.2238576,10 17,10.2238576 17,10.5 L17,12.295 C16.5405193,12.4320685 16.0964808,12.6163863 15.675,12.845 L14.405,11.575 C14.2099813,11.3811382 13.8950187,11.3811382 13.7,11.575 L11.58,13.695 C11.3861382,13.8900187 11.3861382,14.2049813 11.58,14.4 L12.85,15.67 C12.6195409,16.0929652 12.4335469,16.5386805 12.295,17 L10.5,17 C10.2238576,17 10,17.2238576 10,17.5 L10,20.5 C10,20.7761424 10.2238576,21 10.5,21 L12.295,21 C12.4322708,21.4594087 12.6165802,21.9034267 12.845,22.325 L11.575,23.595 C11.3811382,23.7900187 11.3811382,24.1049813 11.575,24.3 L13.695,26.42 C13.8900187,26.6138618 14.2049813,26.6138618 14.4,26.42 L15.67,25.15 C16.0928715,25.3806545 16.5386075,25.5666571 17,25.705 L17,27.5 C17,27.7761424 17.2238576,28 17.5,28 L20.5,28 C20.7761424,28 21,27.7761424 21,27.5 L21,25.705 C21.4594807,25.5679315 21.9035192,25.3836137 22.325,25.155 L23.595,26.425 C23.7900187,26.6188618 24.1049813,26.6188618 24.3,26.425 L26.42,24.305 C26.6138618,24.1099813 26.6138618,23.7950187 26.42,23.6 L25.15,22.33 C25.3804591,21.9070348 25.5664531,21.4613195 25.705,21 L27.5,21 C27.7761424,21 28,20.7761424 28,20.5 L28,17.5 C28,17.2238576 27.7761424,17 27.5,17 Z M27,20 L25.32,20 C25.0831693,19.9936684 24.8744059,20.1544162 24.82,20.385 C24.6719669,21.0068052 24.4255269,21.6009621 24.09,22.145 C23.9683893,22.3415399 23.9973314,22.5958171 24.16,22.76 L25.35,23.95 L23.95,25.365 L22.76,24.175 C22.5958171,24.0123314 22.3415399,23.9833893 22.145,24.105 C21.6013571,24.4412984 21.0070722,24.6877915 20.385,24.835 C20.1544162,24.8894059 19.9936684,25.0981693 20,25.335 L20,27 L18,27 L18,25.32 C18.0063316,25.0831693 17.8455838,24.8744059 17.615,24.82 C16.9929278,24.6727915 16.3986429,24.4262984 15.855,24.09 C15.6584601,23.9683893 15.4041829,23.9973314 15.24,24.16 L14.05,25.365 L12.635,23.95 L13.825,22.76 C13.9876686,22.5958171 14.0166107,22.3415399 13.895,22.145 C13.5594731,21.6009621 13.3130331,21.0068052 13.165,20.385 C13.1105941,20.1544162 12.9018307,19.9936684 12.665,20 L11,20 L11,18 L12.68,18 C12.9168307,18.0063316 13.1255941,17.8455838 13.18,17.615 C13.3280331,16.9931948 13.5744731,16.3990379 13.91,15.855 C14.0316107,15.6584601 14.0026686,15.4041829 13.84,15.24 L12.635,14.05 L14.05,12.635 L15.24,13.825 C15.4041829,13.9876686 15.6584601,14.0166107 15.855,13.895 C16.3986429,13.5587016 16.9929278,13.3122085 17.615,13.165 C17.8455838,13.1105941 18.0063316,12.9018307 18,12.665 L18,11 L20,11 L20,12.68 C19.9936684,12.9168307 20.1544162,13.1255941 20.385,13.18 C21.0070722,13.3272085 21.6013571,13.5737016 22.145,13.91 C22.3415399,14.0316107 22.5958171,14.0026686 22.76,13.84 L23.95,12.65 L25.365,14.065 L24.175,15.255 C24.0123314,15.4191829 23.9833893,15.6734601 24.105,15.87 C24.4405269,16.4140379 24.6869669,17.0081948 24.835,17.63 C24.8894059,17.8605838 25.0981693,18.0213316 25.335,18.015 L27,18.015 L27,20 Z" id="Shape"></path>
                <path d="M6.5,9 C7.88071187,9 9,7.88071187 9,6.5 C9,5.11928813 7.88071187,4 6.5,4 C5.11928813,4 4,5.11928813 4,6.5 C4,7.88071187 5.11928813,9 6.5,9 Z M6.5,5 C7.32842712,5 8,5.67157288 8,6.5 C8,7.32842712 7.32842712,8 6.5,8 C5.67157288,8 5,7.32842712 5,6.5 C5,5.67157288 5.67157288,5 6.5,5 L6.5,5 Z" id="Shape"></path>
                <path d="M0.5,8 L1.21,8 C1.32959172,8.41165978 1.49742269,8.80774089 1.71,9.18 L1.21,9.68 C1.0161382,9.87501873 1.0161382,10.1899813 1.21,10.385 L2.625,11.8 C2.82001873,11.9938618 3.13498127,11.9938618 3.33,11.8 L3.83,11.3 C4.20227987,11.5125354 4.59835589,11.6803642 5.01,11.8 L5.01,12.5 C5.01,12.7761424 5.23385763,13 5.51,13 L7.51,13 C7.78614237,13 8.01,12.7761424 8.01,12.5 L8.01,11.79 C8.42164411,11.6703642 8.81772013,11.5025354 9.19,11.29 L9.69,11.79 C9.88501873,11.9838618 10.1999813,11.9838618 10.395,11.79 L11.81,10.375 C12.0038618,10.1799813 12.0038618,9.86501873 11.81,9.67 L11.31,9.17 C11.5225773,8.79774089 11.6904083,8.40165978 11.81,7.99 L12.5,7.99 C12.7761424,7.99 13,7.76614237 13,7.49 L13,5.5 C13,5.22385763 12.7761424,5 12.5,5 L11.79,5 C11.6704083,4.58834022 11.5025773,4.19225911 11.29,3.82 L11.79,3.32 C11.9838618,3.12498127 11.9838618,2.81001873 11.79,2.615 L10.39,1.195 C10.1949813,1.0011382 9.88001873,1.0011382 9.685,1.195 L9.185,1.695 C8.81272013,1.48246461 8.41664411,1.31463579 8.005,1.195 L8.005,0.5 C8.005,0.223857625 7.78114237,0 7.505,0 L5.5,0 C5.22385763,0 5,0.223857625 5,0.5 L5,1.21 C4.58835589,1.32963579 4.19227987,1.49746461 3.82,1.71 L3.32,1.21 C3.12498127,1.0161382 2.81001873,1.0161382 2.615,1.21 L1.195,2.61 C1.0011382,2.80501873 1.0011382,3.11998127 1.195,3.315 L1.695,3.815 C1.48242269,4.18725911 1.31459172,4.58334022 1.195,4.995 L0.5,4.995 C0.223857625,4.995 -2.50351405e-05,5.21885763 -2.50351405e-05,5.495 L-2.50351405e-05,7.495 C-0.00133479131,7.62847244 0.0507537814,7.75693768 0.144667034,7.85179007 C0.238580286,7.94664245 0.366520886,8 0.5,8 Z M1,6 L1.6,6 C1.84138038,6.00486785 2.05176319,5.83656161 2.1,5.6 C2.2082002,5.02958964 2.42734525,4.48597399 2.745,4 C2.87605256,3.80129866 2.84886184,3.53775779 2.68,3.37 L2.255,2.945 L2.965,2.255 L3.39,2.68 C3.55459138,2.83851137 3.80570251,2.86526911 4,2.745 C4.48538427,2.42416665 5.02897485,2.20163426 5.6,2.09 C5.83656161,2.04176319 6.00486785,1.83138038 6,1.59 L6,1 L7,1 L7,1.6 C6.99513215,1.84138038 7.16343839,2.05176319 7.4,2.1 C7.97030056,2.20857426 8.51384567,2.42769089 9,2.745 C9.19870134,2.87605256 9.46224221,2.84886184 9.63,2.68 L10.055,2.255 L10.76,2.96 L10.335,3.385 C10.1690605,3.54670262 10.1359518,3.8012258 10.255,4 C10.5737834,4.47917808 10.7962531,5.01582259 10.91,5.58 C10.9582368,5.81656161 11.1686196,5.98486785 11.41,5.98 L12,5.98 L12,6.98 L11.4,6.98 C11.1586196,6.97513215 10.9482368,7.14343839 10.9,7.38 C10.7943184,7.95736122 10.5750818,8.50800183 10.255,9 C10.1239474,9.19870134 10.1511382,9.46224221 10.32,9.63 L10.745,10.055 L10.04,10.76 L9.615,10.335 C9.45329738,10.1690605 9.1987742,10.1359518 9,10.255 C8.52064172,10.5734454 7.98406564,10.7958868 7.42,10.91 C7.18343839,10.9582368 7.01513215,11.1686196 7.02,11.41 L7.02,12 L6,12 L6,11.4 C6.00486785,11.1586196 5.83656161,10.9482368 5.6,10.9 C5.02969944,10.7914257 4.48615433,10.5723091 4,10.255 C3.80129866,10.1239474 3.53775779,10.1511382 3.37,10.32 L2.945,10.745 L2.255,10.035 L2.68,9.61 C2.83851137,9.44540862 2.86526911,9.19429749 2.745,9 C2.42382048,8.51479881 2.20125907,7.97113737 2.09,7.4 C2.04176319,7.16343839 1.83138038,6.99513215 1.59,7 L1,7 L1,6 Z" id="Shape"></path>
            </g>
        </g>
    </g>
</svg>