<?xml version="1.0" encoding="UTF-8"?>
<svg width="14px" height="12px" viewBox="0 0 14 12" version="1.1" xmlns="http://www.w3.org/2000/svg" xmlns:xlink="http://www.w3.org/1999/xlink">
    <title>gmail</title>
    <g id="Page-1" stroke="none" stroke-width="1" fill="none" fill-rule="evenodd">
        <g id="intro-copy" transform="translate(-82.000000, -63.000000)" fill="#E87512" fill-rule="nonzero">
            <g id="gmail" transform="translate(82.000000, 63.000000)">
                <path d="M1.28685797,11.3333333 L12.713142,11.3333333 C13.4227242,11.3333333 14,10.735107 14,9.99978598 L14,1.66682281 C14,0.931501753 13.4227242,0.333333333 12.713142,0.333333333 L1.28685797,0.333333333 C0.577275811,0.333333333 0,0.931559651 0,1.66682281 L0,9.99978598 C0,10.735107 0.577275811,11.3333333 1.28685797,11.3333333 Z M0.838089158,1.66682281 C0.838089158,1.41000175 1.03928643,1.20175439 1.28685797,1.20175439 L12.713142,1.20175439 C12.9608253,1.20175439 13.1619108,1.41000175 13.1619108,1.66682281 L13.1619108,9.99978598 C13.1619108,10.2566649 12.9607694,10.4649123 12.713142,10.4649123 L1.28685797,10.4649123 C1.03923055,10.4649123 0.838089158,10.2566649 0.838089158,9.99978598 L0.838089158,1.66682281 Z M2.49962884,9.85076493 L1.66153969,9.85076493 L1.66153969,1.85272281 L6.89535057,5.37359122 C6.95692221,5.41498597 7.04302192,5.41504386 7.10476115,5.37347545 L12.3385162,1.85272281 L12.3385162,9.85076493 L11.500427,9.85076493 L11.500427,3.45189123 L7.56101687,6.10196491 C7.393846,6.21433858 7.19985634,6.27368071 7,6.27368071 C6.80014366,6.27368071 6.60615395,6.21433858 6.43909485,6.1020228 L2.49962884,3.45189123 L2.49962884,9.85076493 Z" id="Shape"></path>
            </g>
        </g>
    </g>
</svg>