<?xml version="1.0" encoding="UTF-8"?>
<svg width="23px" height="27px" viewBox="0 0 23 27" version="1.1" xmlns="http://www.w3.org/2000/svg" xmlns:xlink="http://www.w3.org/1999/xlink">
    <title>location</title>
    <g id="Page-1" stroke="none" stroke-width="1" fill="none" fill-rule="evenodd">
        <g id="intro-copy" transform="translate(-205.000000, -42.000000)" fill="#E87512" fill-rule="nonzero">
            <g id="location" transform="translate(206.000000, 43.000000)">
                <path d="M2.55992546,2.36664634 C6.94956519,-1.78888211 14.0504348,-1.78888211 18.438212,2.36488916 C20.5548663,4.35499786 21.75,7.08664546 21.75,9.94086764 C21.75,12.6853121 20.6450317,15.3164295 18.6800072,17.282386 L18.4400917,17.5150727 L10.4992981,25.0328376 L2.56178799,17.5168462 C0.445133714,15.5267375 -0.75,12.7950898 -0.75,9.94086764 C-0.75,7.19642324 0.354968285,4.56530592 2.3216638,2.59777273 L2.55992546,2.36664634 Z M17.4088601,3.45595659 C13.6709486,-0.0826020291 7.63974329,-0.150651233 3.81362819,3.25180898 L3.59113987,3.45595659 L3.35845358,3.68250789 C1.68547413,5.36932528 0.75,7.6088751 0.75,9.94086764 C0.75,12.2728602 1.68547415,14.5124101 3.3585107,16.1992815 L3.59120512,16.4258405 L10.499,22.966 L17.4107226,16.4240216 C19.069565,14.8643543 20.066176,12.7805325 20.2269564,10.5742267 L20.2442204,10.2582503 L20.25,9.94086764 C20.25,7.50287544 19.22755,5.16592084 17.4088601,3.45595659 Z M10.4993437,6.19714404 C11.5690257,6.19714404 12.5799815,6.5999565 13.3405839,7.33194432 C14.9260914,8.86106023 14.9260914,11.3491004 13.3400083,12.8787709 C12.5799815,13.6102041 11.5690257,14.0130166 10.4993437,14.0130166 C9.43024274,14.0130166 8.4207461,13.6106176 7.6581036,12.8782163 C6.07259605,11.3491004 6.07259605,8.86106023 7.65867917,7.33138981 C8.41870591,6.59995651 9.42966179,6.19714404 10.4993437,6.19714404 Z M10.4993437,7.69714404 C9.81543101,7.69714404 9.17782401,7.95119672 8.69938939,8.41163126 C7.72550078,9.35088164 7.72550078,10.859279 8.69824212,11.7974253 C9.17909619,12.2592105 9.8158186,12.5130166 10.4993437,12.5130166 C11.1832564,12.5130166 11.8208634,12.2589639 12.2992981,11.7985294 C13.2731866,10.859279 13.2731866,9.35088163 12.2998736,8.41218577 C11.8208634,7.95119672 11.1832564,7.69714404 10.4993437,7.69714404 Z" id="Shape"></path>
            </g>
        </g>
    </g>
</svg>