<?xml version="1.0" encoding="UTF-8"?>
<svg width="63px" height="34px" viewBox="0 0 63 34" version="1.1" xmlns="http://www.w3.org/2000/svg" xmlns:xlink="http://www.w3.org/1999/xlink">
    <title>saeedi_logo</title>
    <g id="Page-1" stroke="none" stroke-width="1" fill="none" fill-rule="evenodd">
        <g id="Home-Copy-2" transform="translate(-149.000000, -12.000000)" fill="#FFFFFF" fill-rule="nonzero">
            <g id="saeedi_logo" transform="translate(149.000000, 12.000000)">
                <path d="M62.4864865,21.1351351 L62.4864865,34 L0,34 L0,21.1351351 L62.4864865,21.1351351 Z M21.2600721,23.8918919 C20.8490445,23.8918919 20.48527,23.9586571 20.1687487,24.0921875 C19.8522275,24.2257179 19.6047108,24.4087838 19.4261988,24.6413851 C19.2476868,24.8739865 19.1404296,25.1159206 19.1044272,25.3671875 C19.073568,25.5825591 19.0559341,25.8902329 19.0515257,26.2902087 L19.0504236,26.4978885 L19.0504236,28.5353041 C19.0504236,29.21875 19.1089275,29.7306166 19.2259354,30.0709037 C19.3429432,30.4111909 19.5814593,30.6775338 19.9414835,30.8699324 C20.3015077,31.0623311 20.7590384,31.1585304 21.3140757,31.1585304 C21.8481116,31.1585304 22.2973918,31.0451014 22.6619163,30.8182432 C23.0264409,30.5913851 23.2619567,30.3271959 23.3684638,30.0256757 C23.4631369,29.7576577 23.515733,29.3240073 23.5262522,28.7247247 L23.5282246,28.4922297 L23.5282246,28.2208615 L21.6335972,28.2208615 L21.6335972,29.0952703 C21.6335972,29.4771959 21.6118458,29.719848 21.5683428,29.8232264 C21.5248399,29.9266047 21.4325837,29.9782939 21.2915742,29.9782939 C21.1445643,29.9782939 21.050058,29.9266047 21.0080552,29.8232264 C20.9720527,29.7346163 20.9514799,29.559506 20.9463367,29.2978954 L20.9450509,29.1598818 L20.9450509,25.9206926 C20.9450509,25.5674831 20.9660523,25.3377534 21.0080552,25.2315034 C21.050058,25.1252534 21.1490646,25.0721284 21.3050751,25.0721284 C21.4430844,25.0721284 21.5323404,25.1159206 21.5728431,25.2035051 C21.6075598,25.2785775 21.6273978,25.4512264 21.6323573,25.7214518 L21.6335972,25.8646959 L21.6335972,27.0793919 L23.5282246,27.0793919 L23.5282246,26.4160473 C23.5282246,25.7641892 23.4712208,25.2839105 23.3572131,24.9752111 C23.2432054,24.6665118 23.0046894,24.4087838 22.641665,24.202027 C22.2786406,23.9952703 21.8181096,23.8918919 21.2600721,23.8918919 Z M7.9661784,24.0383446 L5.51351351,24.0383446 L5.51351351,31.0120777 L7.16962485,31.0120777 L7.16962485,26.4117399 L7.86717174,31.0120777 L9.04175071,31.0120777 L9.70329518,26.3040541 L9.70329518,31.0120777 L11.3594065,31.0120777 L11.3594065,24.0383446 L8.88874042,24.0383446 L8.45671138,27.2947635 L8.19569383,25.5201014 C8.13088947,25.0652365 8.06896531,24.6581554 8.00992134,24.2988581 L7.9661784,24.0383446 Z M16.543755,24.0383446 L13.8030708,24.0383446 L12.8400061,31.0120777 L14.802138,31.0120777 L14.9146455,29.7586149 L15.5941912,29.7586149 L15.6886976,31.0120777 L17.628328,31.0120777 L16.543755,24.0383446 Z M27.2544751,24.0383446 L25.3598477,24.0383446 L25.3598477,31.0120777 L27.2544751,31.0120777 L27.2544751,28.0830236 L27.8215132,28.0830236 L27.8215132,31.0120777 L29.7161406,31.0120777 L29.7161406,24.0383446 L27.8215132,24.0383446 L27.8215132,26.532348 L27.2544751,26.532348 L27.2544751,24.0383446 Z M33.5233965,24.0383446 L31.6287692,24.0383446 L31.6287692,31.0120777 L33.5233965,31.0120777 L33.5233965,24.0383446 Z M37.0201316,24.0383446 L35.4360251,24.0383446 L35.4360251,31.0120777 L37.0201316,31.0120777 L37.0201316,27.8418074 L38.0056979,31.0120777 L39.6663095,31.0120777 L39.6663095,24.0383446 L38.082203,24.0383446 L38.082203,27.1784628 L37.0201316,24.0383446 Z M44.7381505,24.0383446 L41.5789381,24.0383446 L41.5789381,31.0120777 L44.8641589,31.0120777 L44.8641589,29.6164696 L43.4735654,29.6164696 L43.4735654,28.0830236 L44.657145,28.0830236 L44.657145,26.7563345 L43.4735654,26.7563345 L43.4735654,25.4339527 L44.7381505,25.4339527 L44.7381505,24.0383446 Z M47.9018632,24.0383446 L46.560773,24.0383446 L46.560773,31.0120777 L48.4554004,31.0120777 L48.4554004,27.867652 C48.7164179,27.867652 48.8776788,27.9121622 48.9391829,28.0011824 C48.9919007,28.0774855 49.0220252,28.2582219 49.0295563,28.5433915 L49.0314391,28.6946791 L49.0314391,31.0120777 L50.7910574,31.0120777 L50.7908728,29.0698379 C50.789027,28.5678369 50.7733374,28.2582823 50.7438042,28.141174 C50.7123021,28.0162584 50.6320467,27.8791385 50.503038,27.7298142 C50.3740293,27.5804899 50.1220124,27.4613176 49.7469872,27.3722973 C50.161015,27.3349662 50.4385337,27.222973 50.5795432,27.0363176 C50.7205526,26.8496622 50.7910574,26.4849662 50.7910574,25.9422297 C50.7910574,25.3478041 50.6913007,24.9149071 50.4917873,24.6435389 C50.2922739,24.3721706 50.0342565,24.2034628 49.7177352,24.1374155 C49.4299886,24.0773725 48.9035896,24.0446218 48.1385382,24.0391634 L47.9018632,24.0383446 Z M53.9862722,24.0383446 L52.2446551,24.0383446 L53.5767447,28.4879223 L53.5767447,31.0120777 L55.3318626,31.0120777 L55.3318626,28.4879223 L56.7134555,24.0383446 L54.9718384,24.0383446 C54.7258219,25.1238176 54.5503101,26.0384291 54.445303,26.7821791 C54.4146581,26.3448721 54.2805369,25.5250168 54.0429393,24.3226132 L53.9862722,24.0383446 Z M15.2521682,25.5976351 C15.3481747,26.7577703 15.4441811,27.7326858 15.5401876,28.5223818 L14.892144,28.5223818 C14.9401472,27.9049831 15.0601553,26.9300676 15.2521682,25.5976351 Z M48.4554004,25.2315034 C48.6744151,25.2315034 48.8251752,25.2659628 48.9076808,25.3348818 C48.9736852,25.3900169 49.0132879,25.4938547 49.0264888,25.6463953 L49.0314391,25.7699324 L49.0314391,26.1532939 C49.0314391,26.4605574 48.9886862,26.6421875 48.9031805,26.6981841 C48.8176747,26.7541807 48.6684147,26.7821791 48.4554004,26.7821791 L48.4554004,25.2315034 Z" id="Combined-Shape"></path>
                <path d="M6.48552563,19.0749261 C7.64008109,19.0749261 8.6521914,18.8657464 9.52185656,18.447387 C10.3915217,18.0290277 10.9781708,17.5107897 11.2818039,16.8926731 C11.585437,16.2745566 11.7372536,15.3134607 11.7372536,14.0093856 C11.7372536,12.2153399 11.4636089,10.9150338 10.9163197,10.1084671 C10.3690304,9.30190034 9.0420413,8.26919341 6.93535243,7.01034628 C6.20063532,6.57314189 5.75455707,6.20001056 5.59711769,5.89095228 C5.43218119,5.581894 5.34971294,5.12207559 5.34971294,4.51149704 C5.34971294,4.03660262 5.4228098,3.6823163 5.56900351,3.44863809 C5.71519722,3.21495988 5.93073923,3.09812078 6.21562954,3.09812078 C6.47802851,3.09812078 6.66545635,3.18480785 6.77791305,3.35818201 C6.89036975,3.53155617 6.9465981,3.93483953 6.9465981,4.56803209 L6.9465981,4.56803209 L6.9465981,5.92487331 L11.3436551,5.92487331 L11.3436551,5.20122466 C11.3436551,3.74638936 11.2030842,2.71556693 10.9219425,2.10875739 C10.6408007,1.50194785 10.0672716,0.998785895 9.20135496,0.599271537 C8.33543836,0.199757179 7.28771676,0 6.05819016,0 C4.93362315,0 3.97399263,0.182796664 3.17929861,0.548389992 C2.38460459,0.913983319 1.80920114,1.42091427 1.45308825,2.06918285 C1.09697536,2.71745144 0.918918919,3.74262035 0.918918919,5.14468961 C0.918918919,6.11709248 1.04449557,6.9161212 1.29564887,7.54177576 C1.54680217,8.16743032 1.86355521,8.65740076 2.24590799,9.01168708 C2.62826078,9.3659734 3.40796057,9.93509291 4.58500738,10.7190456 C5.76205418,11.4954603 6.50051985,12.0495038 6.80040439,12.3811761 C7.09279181,12.7128484 7.23898552,13.417652 7.23898552,14.495587 C7.23898552,14.9855574 7.16214011,15.3549198 7.00844929,15.603674 C6.85475846,15.8524282 6.62047367,15.9768053 6.3055949,15.9768053 C5.99071614,15.9768053 5.77142557,15.8788112 5.6477232,15.6828231 C5.52402083,15.4868349 5.46216965,15.0458615 5.46216965,14.3599029 L5.46216965,14.3599029 L5.46216965,12.1324219 L1.06511263,12.1324219 L1.06511263,13.3309649 C1.06511263,14.7028822 1.20380923,15.7619721 1.48120242,16.5082348 C1.75859562,17.2544975 2.34524475,17.868845 3.2411498,18.3512774 C4.13705485,18.8337099 5.21851346,19.0749261 6.48552563,19.0749261 Z M17.0452099,18.6904878 L17.3263516,15.4001478 L19.0244478,15.4001478 L19.2606069,18.6904878 L24.1074907,18.6904878 L21.3972842,0.384438345 L14.5486711,0.384438345 L12.1420977,18.6904878 L17.0452099,18.6904878 Z M18.8894998,12.1550359 L17.2701233,12.1550359 C17.3900771,10.5343644 17.6899616,7.97521115 18.1697769,4.47757601 C18.4096845,7.52293074 18.6495921,10.082084 18.8894998,12.1550359 L18.8894998,12.1550359 Z M33.1265181,18.6904878 L33.1265181,15.0270165 L29.6516061,15.0270165 L29.6516061,11.0017209 L32.6092173,11.0017209 L32.6092173,7.51916174 L29.6516061,7.51916174 L29.6516061,4.04790963 L32.8116394,4.04790963 L32.8116394,0.384438345 L24.9171789,0.384438345 L24.9171789,18.6904878 L33.1265181,18.6904878 Z M42.6965834,18.6904878 L42.6965834,15.0270165 L39.2216713,15.0270165 L39.2216713,11.0017209 L42.1792826,11.0017209 L42.1792826,7.51916174 L39.2216713,7.51916174 L39.2216713,4.04790963 L42.3817046,4.04790963 L42.3817046,0.384438345 L34.4872442,0.384438345 L34.4872442,18.6904878 L42.6965834,18.6904878 Z M50.0287603,18.6904878 C51.1608244,18.6904878 52.0079983,18.6282992 52.5702818,18.5039221 C53.1325653,18.379545 53.6048834,18.1609428 53.9872362,17.8481155 C54.369589,17.5352882 54.6376108,17.1018528 54.7913016,16.5478093 C54.9449924,15.9937658 55.0218378,14.8951014 55.0218378,13.2518159 L55.0216506,6.66342543 C55.0181562,5.02748974 54.9657388,3.92385743 54.8643985,3.35252851 C54.7594389,2.76079497 54.4970399,2.22371199 54.0772016,1.74127956 C53.6573632,1.25884713 53.0444742,0.912098818 52.2385345,0.701034628 C51.4325948,0.489970439 49.8863152,0.384438345 47.5996956,0.384438345 L47.5996956,0.384438345 L44.0573095,0.384438345 L44.0573095,18.6904878 L50.0287603,18.6904878 Z M48.7917366,15.5584459 L48.7917366,3.51648015 C49.3090374,3.51648015 49.6614018,3.5711307 49.8488296,3.6804318 C50.0362574,3.7897329 50.1562112,3.96122255 50.208691,4.19490076 C50.2611708,4.42857897 50.2874107,4.96000845 50.2874107,5.78918919 L50.2874107,12.9012986 C50.2874107,14.1224557 50.208691,14.8706028 50.0512517,15.1457401 C49.8938123,15.4208773 49.4739739,15.5584459 48.7917366,15.5584459 L48.7917366,15.5584459 Z M61.5218352,18.6904878 L61.5218352,0.384438345 L56.7874081,0.384438345 L56.7874081,18.6904878 L61.5218352,18.6904878 Z" id="SAEEDI"></path>
            </g>
        </g>
    </g>
</svg>