<?xml version="1.0" encoding="UTF-8"?>
<svg width="288px" height="288px" viewBox="0 0 288 288" version="1.1" xmlns="http://www.w3.org/2000/svg" xmlns:xlink="http://www.w3.org/1999/xlink">
    <title>saeedi_machinery</title>
    <g id="Page-1" stroke="none" stroke-width="1" fill="none" fill-rule="evenodd">
        <g id="intro-copy-2" transform="translate(-36.000000, -216.000000)">
            <g id="saeedi_machinery" transform="translate(36.000000, 216.000000)">
                <rect id="Rectangle" fill="#FDFDFD" x="0" y="0" width="288" height="288" rx="18"></rect>
                <g id="saeedi" transform="translate(35.000000, 85.000000)">
                    <g id="SAEEDI-2" transform="translate(1.000000, 0.000000)" fill="#1C33BD" fill-rule="nonzero">
                        <path d="M19.5501014,66.2279297 C23.6049372,66.2279297 27.1595011,65.5016602 30.213793,64.0491211 C33.2680849,62.596582 35.3284155,60.7972656 36.3947847,58.6511719 C37.4611538,56.5050781 37.9943384,53.1681641 37.9943384,48.6404297 C37.9943384,42.4115234 37.0332897,37.896875 35.1111921,35.0964844 C33.1890946,32.2960937 28.5286664,28.7105469 21.1299075,24.3398438 C18.5495575,22.821875 16.9829163,21.5263672 16.4299842,20.4533203 C15.8507219,19.3802734 15.5610908,17.7837891 15.5610908,15.6638672 C15.5610908,14.0150391 15.8178093,12.7849609 16.3312463,11.9736328 C16.8446833,11.1623047 17.6016738,10.7566406 18.6022177,10.7566406 C19.5237713,10.7566406 20.1820238,11.0576172 20.5769754,11.6595703 C20.9719269,12.2615234 21.1694027,13.6617187 21.1694027,15.8601562 L21.1694027,15.8601562 L21.1694027,20.5710937 L36.612008,20.5710937 L36.612008,18.0585937 C36.612008,13.0074219 36.1183186,9.42841797 35.1309397,7.32158203 C34.1435609,5.21474609 32.129308,3.46777344 29.0881811,2.08066406 C26.0470542,0.693554687 22.3674224,0 18.0492855,0 C14.0997701,0 10.7295169,0.634667969 7.93852601,1.90400391 C5.14753511,3.17333984 3.12669971,4.93339844 1.87601983,7.18417969 C0.625339943,9.43496094 0,12.9943359 0,17.8623047 C0,21.2384766 0.441029223,24.0126953 1.32308767,26.1849609 C2.20514611,28.3572266 3.31759296,30.0583984 4.6604282,31.2884766 C6.00326345,32.5185547 8.74159415,34.4945313 12.8754203,37.2164062 C17.0092464,39.9121094 19.6027616,41.8357422 20.6559657,42.9873047 C21.6828397,44.1388672 22.1962767,46.5859375 22.1962767,50.3285156 C22.1962767,52.0296875 21.9263931,53.3121094 21.386626,54.1757812 C20.8468589,55.0394531 20.0240432,55.4712891 18.9181789,55.4712891 C17.8123146,55.4712891 17.0421591,55.1310547 16.6077124,54.4505859 C16.1732657,53.7701172 15.9560423,52.2390625 15.9560423,49.8574219 L15.9560423,49.8574219 L15.9560423,42.1236328 L0.513437006,42.1236328 L0.513437006,46.2849609 C0.513437006,51.0482422 1.00054391,54.7253906 1.97475771,57.3164062 C2.94897152,59.9074219 5.00930207,62.0404297 8.15574936,63.7154297 C11.3021966,65.3904297 15.100314,66.2279297 19.5501014,66.2279297 Z M56.6360512,64.8931641 L57.6234301,53.4691406 L63.5871984,53.4691406 L64.4165966,64.8931641 L81.4390081,64.8931641 L71.9206759,1.33476563 L47.868127,1.33476563 L39.416164,64.8931641 L56.6360512,64.8931641 Z M63.1132565,42.2021484 L57.4259543,42.2021484 C57.847236,36.5751953 58.9004401,27.6898437 60.5855667,15.5460937 C61.4281299,26.1195312 62.2706932,35.0048828 63.1132565,42.2021484 L63.1132565,42.2021484 Z M113.114122,64.8931641 L113.114122,52.1736328 L100.910119,52.1736328 L100.910119,38.1978516 L111.297345,38.1978516 L111.297345,26.1064453 L100.910119,26.1064453 L100.910119,14.0542969 L112.008258,14.0542969 L112.008258,1.33476563 L84.2826592,1.33476563 L84.2826592,64.8931641 L113.114122,64.8931641 Z M146.724498,64.8931641 L146.724498,52.1736328 L134.520495,52.1736328 L134.520495,38.1978516 L144.907721,38.1978516 L144.907721,26.1064453 L134.520495,26.1064453 L134.520495,14.0542969 L145.618634,14.0542969 L145.618634,1.33476563 L117.893036,1.33476563 L117.893036,64.8931641 L146.724498,64.8931641 Z M172.475339,64.8931641 C176.451184,64.8931641 179.426486,64.6772461 181.401244,64.2454102 C183.376001,63.8135742 185.034798,63.0545898 186.377633,61.968457 C187.720468,60.8823242 188.661769,59.3774414 189.201537,57.4538086 C189.741304,55.5301758 190.011187,51.715625 190.011187,46.0101562 L190.01053,23.1353384 C189.998257,17.455388 189.814165,13.623589 189.458255,11.6399414 C189.089634,9.58544922 188.16808,7.72070313 186.693594,6.04570313 C185.219108,4.37070313 183.066623,3.16679688 180.236137,2.43398438 C177.40565,1.70117188 171.975067,1.33476563 163.944385,1.33476563 L163.944385,1.33476563 L151.503412,1.33476563 L151.503412,64.8931641 L172.475339,64.8931641 Z M168.130872,54.01875 L168.130872,12.2091797 C169.947649,12.2091797 171.185164,12.3989258 171.843416,12.778418 C172.501669,13.1579102 172.92295,13.7533203 173.107261,14.5646484 C173.291572,15.3759766 173.383727,17.2210938 173.383727,20.1 L173.383727,44.7931641 C173.383727,49.0330078 173.107261,51.6305664 172.554329,52.5858398 C172.001397,53.5411133 170.526911,54.01875 168.130872,54.01875 L168.130872,54.01875 Z M212.839386,64.8931641 L212.839386,1.33476563 L196.211926,1.33476563 L196.211926,64.8931641 L212.839386,64.8931641 Z" id="SAEEDI"></path>
                    </g>
                    <rect id="Rectangle" fill="#E87512" x="0" y="72" width="218" height="46"></rect>
                    <g id="MACHINERY-2" transform="translate(19.000000, 82.000000)" fill="#FFFFFF" fill-rule="nonzero">
                        <path d="M5.79291045,26.1509766 L5.79291045,9.25488281 L8.23285914,26.1509766 L12.3414179,26.1509766 L14.6554338,8.859375 L14.6554338,26.1509766 L20.4483442,26.1509766 L20.4483442,0.537890625 L11.8062034,0.537890625 L10.2950093,12.4980469 L9.38199627,5.98007812 C9.09864739,3.89179687 8.83104011,2.07773437 8.57917444,0.537890625 L8.57917444,0.537890625 L0,0.537890625 L0,26.1509766 L5.79291045,26.1509766 Z M32.4906716,26.1509766 L32.8842118,21.5472656 L35.261194,21.5472656 L35.5917677,26.1509766 L42.3763993,26.1509766 L38.5826726,0.537890625 L28.9960354,0.537890625 L25.6273321,26.1509766 L32.4906716,26.1509766 Z M35.0722948,17.0068359 L32.8055037,17.0068359 C32.9734142,14.7392578 33.3931903,11.1585938 34.0648321,6.26484375 C34.400653,10.5257813 34.7364739,14.1064453 35.0722948,17.0068359 L35.0722948,17.0068359 Z M55.2687733,26.6888672 C57.1367771,26.6888672 58.7083139,26.2722656 59.9833839,25.4390625 C61.2584538,24.6058594 62.0822645,23.6355469 62.4548158,22.528125 C62.8273671,21.4207031 63.0136427,19.5433594 63.0136427,16.8960937 L63.0136427,16.8960937 L63.0136427,15.8994141 L56.3864272,15.8994141 L56.3864272,19.1109375 C56.3864272,20.5136719 56.3103428,21.4048828 56.158174,21.7845703 C56.0060051,22.1642578 55.6833022,22.3541016 55.1900653,22.3541016 C54.6758396,22.3541016 54.3452659,22.1642578 54.1983442,21.7845703 C54.0514226,21.4048828 53.9779618,20.5927734 53.9779618,19.3482422 L53.9779618,19.3482422 L53.9779618,7.45136719 C53.9779618,6.15410156 54.0514226,5.31035156 54.1983442,4.92011719 C54.3452659,4.52988281 54.6915812,4.33476563 55.2372901,4.33476563 C55.7200326,4.33476563 56.0322411,4.49560547 56.1739156,4.81728516 C56.31559,5.13896484 56.3864272,5.9484375 56.3864272,7.24570312 L56.3864272,7.24570312 L56.3864272,11.7070312 L63.0136427,11.7070312 L63.0136427,9.27070313 C63.0136427,6.8765625 62.8142491,5.11259766 62.4154618,3.97880859 C62.0166744,2.84501953 61.1823694,1.8984375 59.9125466,1.1390625 C58.6427239,0.3796875 57.031833,0 55.0798741,0 C53.6421409,0 52.3696945,0.245214844 51.262535,0.735644531 C50.1553755,1.22607422 49.2895872,1.8984375 48.6651702,2.75273438 C48.0407533,3.60703125 47.6655784,4.49560547 47.5396455,5.41845703 C47.4137127,6.34130859 47.3507463,7.72558594 47.3507463,9.57128906 L47.3507463,9.57128906 L47.3507463,17.0542969 C47.3507463,19.5644531 47.5553871,21.4444336 47.9646688,22.6942383 C48.3739506,23.944043 49.2082556,24.9222656 50.467584,25.6289063 C51.7269123,26.3355469 53.3273088,26.6888672 55.2687733,26.6888672 Z M76.0476912,26.1509766 L76.0476912,15.3931641 L78.0311334,15.3931641 L78.0311334,26.1509766 L84.6583489,26.1509766 L84.6583489,0.537890625 L78.0311334,0.537890625 L78.0311334,9.69785156 L76.0476912,9.69785156 L76.0476912,0.537890625 L69.4204757,0.537890625 L69.4204757,26.1509766 L76.0476912,26.1509766 Z M97.9757463,26.1509766 L97.9757463,0.537890625 L91.3485308,0.537890625 L91.3485308,26.1509766 L97.9757463,26.1509766 Z M110.206973,26.1509766 L110.206973,14.5072266 L113.654384,26.1509766 L119.463036,26.1509766 L119.463036,0.537890625 L113.921992,0.537890625 L113.921992,12.0708984 L110.206973,0.537890625 L104.665928,0.537890625 L104.665928,26.1509766 L110.206973,26.1509766 Z M137.64459,26.1509766 L137.64459,21.0251953 L132.780434,21.0251953 L132.780434,15.3931641 L136.920476,15.3931641 L136.920476,10.5205078 L132.780434,10.5205078 L132.780434,5.66367187 L137.203825,5.66367187 L137.203825,0.537890625 L126.153218,0.537890625 L126.153218,26.1509766 L137.64459,26.1509766 Z M150.20639,26.1509766 L150.20639,14.6021484 C151.119403,14.6021484 151.683477,14.765625 151.898612,15.0925781 C152.113748,15.4195312 152.221315,16.2685547 152.221315,17.6396484 L152.221315,17.6396484 L152.221315,26.1509766 L158.376283,26.1509766 L158.375637,19.0175297 C158.36918,17.1737835 158.3143,16.036853 158.210996,15.6067383 C158.100805,15.1479492 157.820079,14.6443359 157.36882,14.0958984 C156.917561,13.5474609 156.036031,13.1097656 154.72423,12.7828125 C156.172458,12.6457031 157.14319,12.234375 157.636427,11.5488281 C158.129664,10.8632812 158.376283,9.52382812 158.376283,7.53046875 C158.376283,5.34726562 158.027344,3.75732422 157.329466,2.76064453 C156.631588,1.76396484 155.729069,1.14433594 154.62191,0.901757812 C153.51475,0.659179687 151.397505,0.537890625 148.270173,0.537890625 L148.270173,0.537890625 L143.579174,0.537890625 L143.579174,26.1509766 L150.20639,26.1509766 Z M150.20639,10.6154297 L150.20639,4.92011719 C150.972481,4.92011719 151.499825,5.04667969 151.788421,5.29980469 C152.077017,5.55292969 152.221315,6.08554688 152.221315,6.89765625 L152.221315,6.89765625 L152.221315,8.30566406 C152.221315,9.43417969 152.07177,10.1012695 151.77268,10.3069336 C151.473589,10.5125977 150.951493,10.6154297 150.20639,10.6154297 L150.20639,10.6154297 Z M174.259562,26.1509766 L174.259562,16.8802734 L179.092234,0.537890625 L173.000233,0.537890625 C172.139692,4.52460937 171.52577,7.88378906 171.158465,10.6154297 C171.043027,8.88574219 170.507812,5.5265625 169.552822,0.537890625 L169.552822,0.537890625 L163.460821,0.537890625 L168.120336,16.8802734 L168.120336,26.1509766 L174.259562,26.1509766 Z" id="MACHINERY"></path>
                    </g>
                </g>
            </g>
        </g>
    </g>
</svg>