<?xml version="1.0" encoding="UTF-8"?>
<svg width="21px" height="28px" viewBox="0 0 21 28" version="1.1" xmlns="http://www.w3.org/2000/svg" xmlns:xlink="http://www.w3.org/1999/xlink">
    <title>profile_disable</title>
    <g id="Page-1" stroke="none" stroke-width="1" fill="none" fill-rule="evenodd">
        <g id="Home-Copy-2" transform="translate(-307.000000, -716.000000)" fill-rule="nonzero">
            <g id="profile_disable" transform="translate(307.000000, 716.000000)">
                <path d="M10.5,15.4918033 C16.2903659,15.4918033 21,19.712459 21,24.9016393 L21,24.9016393 L21,28 L18.4390244,28 L18.4390244,24.9016393 C18.4390244,20.9793443 14.8767073,17.7868852 10.5,17.7868852 C6.12329268,17.7868852 2.56097561,20.9793443 2.56097561,24.9016393 L2.56097561,24.9016393 L2.56097561,28 L0,28 L0,24.9016393 C0,19.712459 4.70963415,15.4918033 10.5,15.4918033 Z M10.5,0 C14.5896341,0 17.9146341,3.2957377 17.9146341,7.3442623 C17.9146341,11.3927869 14.5873171,14.6885246 10.5,14.6885246 C6.41268293,14.6885246 3.08536585,11.395082 3.08536585,7.3442623 C3.08536585,3.2957377 6.41036585,0 10.5,0 Z" id="Combined-Shape" fill="#505050"></path>
                <path d="M10.5,2.29508197 C13.3106098,2.29508197 15.597561,4.55803279 15.597561,7.34196721 C15.597561,10.1259016 13.3106098,12.3934426 10.5,12.3934426 C7.68939024,12.3934426 5.40243902,10.1281967 5.40243902,7.3442623 C5.40243902,4.56032787 7.68939024,2.29508197 10.5,2.29508197 Z" id="Path" fill="#F0F0F0"></path>
            </g>
        </g>
    </g>
</svg>