<?xml version="1.0" encoding="UTF-8"?>
<svg width="28px" height="28px" viewBox="0 0 28 28" version="1.1" xmlns="http://www.w3.org/2000/svg" xmlns:xlink="http://www.w3.org/1999/xlink">
    <title>search_enable</title>
    <g id="Page-1" stroke="none" stroke-width="1" fill="none" fill-rule="evenodd">
        <g id="Home-Copy-2" transform="translate(-32.000000, -716.000000)" fill-rule="nonzero">
            <g id="search_enable" transform="translate(32.000000, 716.000000)">
                <path d="M12.1574251,24.3126195 C15.1086679,24.3126195 17.8145315,23.2530274 19.9247929,21.4974506 L26.4273423,28 L28.0044614,26.4228808 L21.501912,19.9203314 C23.2552581,17.8123008 24.3148502,15.1042065 24.3148502,12.1551944 C24.3148502,5.45188018 18.8607393,0 12.1574251,0 C5.4541109,0 -1.0658141e-13,5.45188018 -1.0658141e-13,12.1551944 C-1.0658141e-13,18.8585086 5.4541109,24.3126195 12.1574251,24.3126195 Z" id="Combined-Shape" fill="#505050"></path>
                <path d="M12.1574251,2.22848948 C17.6316125,2.22848948 22.08413,6.68100701 22.08413,12.1529637 C22.08413,17.6271511 17.6316125,22.0796686 12.1574251,22.0796686 C6.68546845,22.0796686 2.23295009,17.6271511 2.23295009,12.1529637 C2.2307202,6.68100701 6.68323773,2.22848948 12.1574251,2.22848948 Z" id="Path" fill="#FF8F2E"></path>
            </g>
        </g>
    </g>
</svg>