<?xml version="1.0" encoding="UTF-8"?>
<svg width="16px" height="16px" viewBox="0 0 16 16" version="1.1" xmlns="http://www.w3.org/2000/svg" xmlns:xlink="http://www.w3.org/1999/xlink">
    <title>whatsapp</title>
    <g id="Page-1" stroke="none" stroke-width="1" fill="none" fill-rule="evenodd">
        <g id="intro-copy" transform="translate(-123.000000, -66.000000)">
            <g id="whatsapp" transform="translate(124.000000, 67.000000)">
                <path d="M0,14 L1.204,10.3882414 C0.593068966,9.36068966 0.24137931,8.16151724 0.24137931,6.87931034 C0.24137931,3.08 3.32137931,0 7.12068966,0 C10.92,0 14,3.08 14,6.87931034 C14,10.6786207 10.92,13.7586207 7.12068966,13.7586207 C5.96472414,13.7586207 4.87610345,13.4721034 3.92,12.9685862 L0,14 Z" id="Path" stroke="#E87512"></path>
                <path d="M10.929546,9.21872766 C10.6371007,8.66606975 9.55865307,8.03407976 9.55865307,8.03407976 C9.31465235,7.89497085 9.02020705,7.87941554 8.88109553,8.12741161 C8.88109553,8.12741161 8.53065006,8.54762718 8.44153869,8.60807067 C8.03442639,8.88384407 7.65731418,8.87317758 7.2766464,8.49251694 L6.39197714,7.60786429 L5.50730789,6.72321164 C5.12664011,6.342551 5.11597341,5.96544587 5.391752,5.55834121 C5.45219662,5.46923151 5.87242007,5.11879261 5.87242007,5.11879261 C6.12042079,4.97946149 6.10486519,4.68524393 5.96575368,4.44124779 C5.96575368,4.44124779 5.33375183,3.36282043 4.78108355,3.07038062 C4.54597175,2.94593815 4.25730424,2.98949301 4.06930369,3.17749004 L3.67863588,3.56815051 C2.43929892,4.80746421 3.04952293,6.20655316 4.28885989,7.44586686 L5.42152986,8.57851558 L6.55419984,9.7111643 C7.7935368,10.950478 9.192652,11.5606906 10.431989,10.3213769 L10.8226568,9.93071638 C11.0106573,9.74227492 11.0539908,9.45361283 10.929546,9.21872766 Z" id="Path" fill="#E87512" fill-rule="nonzero"></path>
            </g>
        </g>
    </g>
</svg>