<?xml version="1.0" encoding="UTF-8"?>
<svg width="28px" height="28px" viewBox="0 0 28 28" version="1.1" xmlns="http://www.w3.org/2000/svg" xmlns:xlink="http://www.w3.org/1999/xlink">
    <title>world</title>
    <g id="Page-1" stroke="none" stroke-width="1" fill="none" fill-rule="evenodd">
        <g id="intro-copy" transform="translate(-138.000000, -115.000000)" fill="#FFFFFF" fill-rule="nonzero">
            <g id="Group" transform="translate(138.000000, 115.000000)">
                <path d="M14,28 C6.2804,28 0,21.7196 0,14 C0,6.2804 6.2804,0 14,0 C21.7196,0 28,6.2804 28,14 C28,21.7196 21.7196,28 14,28 Z M14,1.33333333 C7.01553333,1.33333333 1.33333333,7.01553333 1.33333333,14 C1.33333333,20.9844667 7.01553333,26.6666667 14,26.6666667 C20.9844667,26.6666667 26.6666667,20.9844667 26.6666667,14 C26.6666667,7.01553333 20.9844667,1.33333333 14,1.33333333 Z" id="Shape"></path>
                <path d="M14,28 C11.8870667,28 9.93586667,26.4855333 8.50593333,23.7356667 C7.14786667,21.1240667 6.4,17.6665333 6.4,14 C6.4,10.3334 7.14786667,6.87593333 8.50593333,4.26433333 C9.93586667,1.5144 11.8870667,0 14,0 C16.1129333,0 18.0641333,1.5144 19.4940667,4.26433333 C20.8520667,6.87593333 21.6,10.3334 21.6,14 C21.6,17.6665333 20.8520667,21.1240667 19.4940667,23.7356667 C18.0641333,26.4855333 16.1129333,28 14,28 Z M14,1.33333333 C12.4090667,1.33333333 10.878,2.59273333 9.68886667,4.87946667 C8.4278,7.30453333 7.73333333,10.5436 7.73333333,14 C7.73333333,17.4564 8.4278,20.6954667 9.68886667,23.1205333 C10.878,25.4072667 12.4090667,26.6666667 14,26.6666667 C15.5909333,26.6666667 17.122,25.4072667 18.3111333,23.1205333 C19.5722,20.6954667 20.2666667,17.4564 20.2666667,14 C20.2666667,10.5436 19.5722,7.30453333 18.3111333,4.87946667 C17.122,2.59273333 15.5909333,1.33333333 14,1.33333333 Z" id="Shape"></path>
                <path d="M14,28 C13.6318,28 13.3333333,27.7014667 13.3333333,27.3333333 L13.3333333,0.666666667 C13.3333333,0.298466667 13.6318,0 14,0 C14.3681333,0 14.6666667,0.298466667 14.6666667,0.666666667 L14.6666667,27.3333333 C14.6666667,27.7014667 14.3681333,28 14,28 Z" id="Path"></path>
                <path d="M27.3333333,14.6666667 L0.666666667,14.6666667 C0.298466667,14.6666667 0,14.3681333 0,14 C0,13.6318 0.298466667,13.3333333 0.666666667,13.3333333 L27.3333333,13.3333333 C27.7014667,13.3333333 28,13.6318 28,14 C28,14.3681333 27.7014667,14.6666667 27.3333333,14.6666667 Z" id="Path"></path>
                <path d="M25.6,8.93333333 L2.4,8.93333333 C2.0318,8.93333333 1.73333333,8.63486667 1.73333333,8.26666667 C1.73333333,7.89846667 2.0318,7.6 2.4,7.6 L25.6,7.6 C25.9681333,7.6 26.2666667,7.89846667 26.2666667,8.26666667 C26.2666667,8.63486667 25.9681333,8.93333333 25.6,8.93333333 Z" id="Path"></path>
                <path d="M25.6,20.9333333 L2.4,20.9333333 C2.0318,20.9333333 1.73333333,20.6348 1.73333333,20.2666667 C1.73333333,19.8985333 2.0318,19.6 2.4,19.6 L25.6,19.6 C25.9681333,19.6 26.2666667,19.8985333 26.2666667,20.2666667 C26.2666667,20.6348 25.9681333,20.9333333 25.6,20.9333333 Z" id="Path"></path>
            </g>
        </g>
    </g>
</svg>